PathFileType	4	(X/Y/Z)	C:\Users\Basilio\Documents\Thesis Gigler\squatting_fais\c3dfiles\047\SLS_pre_back5\markers_experimental.trc
DataRate	CameraRate	NumFrames	NumMarkers	Units	OrigDataRate	OrigDataStartFrame	OrigNumFrames
200.000000	200.000000	4	62	mm	200.000000	163	1304
Frame#	Time	FHD			LBHD			RBHD			C7			T10			CLAV			LSHO			LUUPA			LMUPA			LDUPA			LLEP			LMEP			LRAD			LUL			LRFIN			RSHO			RUPA1			RMUPA			RDUPA			RLEP			RMEP			RRAD			RUFIN			LASI			RASI			USACR			LSACR			RSACR			LTHI1			LTHI2			LTHI3			LTHI4			LLFC			LMFC			LTIB1			LTIB2			LTIB3			LTIB4			LLMAL			LMMAL			LMT1			LMT2			LMT5			RTHI			RTHI2			RTHI3			RTHI4			RLFC			RMFC			RTIB1			RTIB2			RTIB3			RTIB4			RLMAL			RMMAL			RHEE			RMT1			RMT2			RMT5			RUL			*60			*61			
		X1	Y1	Z1	X2	Y2	Z2	X3	Y3	Z3	X4	Y4	Z4	X5	Y5	Z5	X6	Y6	Z6	X7	Y7	Z7	X8	Y8	Z8	X9	Y9	Z9	X10	Y10	Z10	X11	Y11	Z11	X12	Y12	Z12	X13	Y13	Z13	X14	Y14	Z14	X15	Y15	Z15	X16	Y16	Z16	X17	Y17	Z17	X18	Y18	Z18	X19	Y19	Z19	X20	Y20	Z20	X21	Y21	Z21	X22	Y22	Z22	X23	Y23	Z23	X24	Y24	Z24	X25	Y25	Z25	X26	Y26	Z26	X27	Y27	Z27	X28	Y28	Z28	X29	Y29	Z29	X30	Y30	Z30	X31	Y31	Z31	X32	Y32	Z32	X33	Y33	Z33	X34	Y34	Z34	X35	Y35	Z35	X36	Y36	Z36	X37	Y37	Z37	X38	Y38	Z38	X39	Y39	Z39	X40	Y40	Z40	X41	Y41	Z41	X42	Y42	Z42	X43	Y43	Z43	X44	Y44	Z44	X45	Y45	Z45	X46	Y46	Z46	X47	Y47	Z47	X48	Y48	Z48	X49	Y49	Z49	X50	Y50	Z50	X51	Y51	Z51	X52	Y52	Z52	X53	Y53	Z53	X54	Y54	Z54	X55	Y55	Z55	X56	Y56	Z56	X57	Y57	Z57	X58	Y58	Z58	X59	Y59	Z59	X60	Y60	Z60	X61	Y61	Z61	X62	Y62	Z62	

164	0.8150000000000001	-192.2180633544922	1745.102661132813	-1110.23046875	-365.3461608886719	1690.084106445313	-1133.124633789063	-341.6574401855469	1699.608520507813	-986.0308837890627	-370.5692749023438	1517.189453125	-1055.992065429688	-381.4654541015626	1207.986938476563	-1025.99169921875	-221.370346069336	1462.637451171875	-1088.665893554688	-306.5870666503907	1471.923706054688	-1237.69677734375	-244.7124633789063	1323.989013671875	-1339.068359375	-203.294662475586	1351.060180664063	-1340.406494140625	-183.0028076171875	1296.6875	-1355.63232421875	-109.7864532470703	1286.138916015625	-1366.23095703125	-120.4265213012696	1234.07470703125	-1298.139892578125	31.71227836608887	1420.73291015625	-1197.74267578125	77.32884216308595	1360.2861328125	-1194.538452148438	120.7573852539063	1440.83740234375	-1199.454833984375	-246.7306823730469	1496.55078125	-925.3445434570315	-138.9670715332032	1356.92333984375	-834.7136230468752	-101.9562606811524	1379.627807617188	-857.2390747070315	-76.06550598144533	1327.027099609375	-843.5787353515627	-4.155804157257081	1315.873168945313	-867.0786132812502	-35.44144439697266	1249.737670898438	-919.2197875976565	133.0115814208985	1368.999633789063	-1084.890380859375	104.8174209594727	1454.547241210938	-1109.081176757813	-212.4840545654297	981.2297973632815	-1118.140869140625	-201.0205383300782	1003.245544433594	-889.435729980469	-386.8410949707032	1077.189453125	-1006.557250976563	-394.1880187988282	1043.65625	-1031.766235351563	-390.082489013672	1048.793579101563	-973.7547607421877	-298.9915161132813	827.5852050781252	-1176.000610351563	-265.8861694335938	749.8983154296876	-1172.527709960938	-217.3053131103516	752.5996093750001	-1159.213989257813	-296.2098388671876	697.0776977539064	-1164.86767578125	-326.6788940429688	526.6104125976564	-1121.869506835938	-301.0458068847657	519.6708374023439	-999.0792236328127	-298.5448303222657	345.5629577636719	-1022.167114257813	-305.4104919433594	297.1170043945313	-1095.048217773438	-290.1574401855469	296.7201843261719	-1049.640380859375	-303.5525207519532	219.8711242675782	-1016.679077148438	-352.6904602050782	124.0545883178711	-1058.560546875	-330.6557006835938	138.0594024658203	-972.2866821289065	-208.1357421875001	64.28971099853517	-991.528259277344	-208.7561798095704	60.96852111816408	-1036.553100585938	-258.2271423339844	50.13892745971681	-1080.715576171875	-263.2878723144532	827.2215576171877	-778.6264648437502	-215.850814819336	780.0649414062502	-770.9724731445315	-186.2428283691407	783.8374633789065	-783.2606201171877	-229.2959442138672	697.9326171875001	-758.8578491210939	-210.2943420410157	565.7958984375001	-764.3118896484376	-205.1071929931641	528.7979736328126	-889.2817382812502	-293.0953063964844	473.2141113281251	-760.1041259765626	-391.8103637695314	510.9078674316407	-727.3449707031251	-374.5733642578126	467.0571594238282	-731.0139770507814	-416.9360351562501	432.5254211425782	-757.0744628906251	-580.9369506835939	444.6692199707032	-724.6349487304689	-556.4660644531251	402.4117126464845	-803.2858886718752	-610.9873657226564	483.702850341797	-789.948181152344	-616.9668579101564	276.8312377929688	-769.5321044921877	-618.6838989257814	279.0131530761719	-724.0004882812501	-655.9184570312501	333.3887939453126	-684.0536499023439	nan	nan	nan	nan	nan	nan	nan	nan	nan	
165	0.8200000000000001	-192.1128845214844	1745.16455078125	-1110.138549804688	-365.4219970703126	1690.202270507813	-1132.976196289063	-341.6482849121094	1699.544799804688	-985.8833618164065	-370.4548950195313	1517.212646484375	-1055.84326171875	-381.5255737304688	1207.955200195313	-1025.948486328125	-221.3480377197266	1462.626098632813	-1088.55126953125	-306.6122131347657	1472.008178710938	-1237.570434570313	-244.9126739501954	1324.030883789063	-1338.944580078125	-203.3675231933594	1351.090942382813	-1340.403442382813	-183.0569915771485	1296.691528320313	-1355.627075195313	-109.7815704345703	1286.256591796875	-1366.224487304688	-120.4210586547852	1234.140869140625	-1298.020263671875	31.72995376586915	1420.789794921875	-1197.754272460938	77.30469512939455	1360.309326171875	-1194.582763671875	120.7358016967774	1440.860229492188	-1199.452514648438	-246.6298217773438	1496.3603515625	-925.5771484375002	-139.0489501953125	1356.764282226563	-835.6030883789065	-101.9242782592774	1379.6123046875	-857.194519042969	-75.99684906005861	1327.066772460938	-843.8111572265627	-4.145160198211671	1315.894653320313	-867.073913574219	-35.42612457275391	1249.795654296875	-919.2053222656252	132.9734802246094	1369.04345703125	-1084.900146484375	104.8384628295899	1454.607055664063	-1109.107788085938	-212.4211730957032	981.2570800781252	-1118.073120117188	-201.2113647460938	1003.196655273438	-889.210632324219	-386.9058227539064	1077.118286132813	-1006.550048828125	-394.2340698242189	1043.663452148438	-1031.78369140625	-390.3126831054689	1048.724853515625	-973.7376098632815	-298.9011230468751	827.5982055664065	-1175.973754882813	-265.6900634765626	749.8833007812501	-1172.481201171875	-217.2027740478516	752.6327514648439	-1159.111938476563	-296.0581665039063	697.1082153320314	-1164.843994140625	-326.5183105468751	526.6837768554689	-1121.831420898438	-300.9906616210938	519.6705322265626	-999.0568847656252	-298.5066528320313	345.5553588867188	-1021.982543945313	-305.3478698730469	297.1365051269532	-1094.9619140625	-290.0751953125001	296.7798156738282	-1049.490112304688	-303.3237304687501	219.8828887939454	-1016.468139648438	-352.6467590332032	124.051498413086	-1058.532836914063	-330.7207946777344	138.0276794433594	-972.1649169921877	-208.1005096435547	64.29228973388673	-991.4843750000002	-208.7606048583985	60.97594451904298	-1036.528686523438	-258.2192687988282	50.06872558593751	-1080.672973632813	-263.3378295898438	827.1652832031252	-778.6103515625002	-215.9614562988282	779.945739746094	-771.0260009765627	-186.276123046875	783.7241210937502	-783.5327758789065	-229.3616485595704	697.8325195312501	-758.9711303710939	-210.2854919433594	565.6809082031251	-764.4910888671876	-205.0527648925782	528.7623901367189	-889.527770996094	-293.1309814453126	473.0936889648439	-759.8675537109376	-391.6656799316407	510.7773437500001	-727.6743164062501	-374.5168762207032	466.979461669922	-731.1992187500001	-416.9530334472657	432.4200744628907	-756.9567260742189	-580.8544311523439	444.5263671875001	-724.8389892578126	-556.4465942382814	402.239715576172	-803.5056762695315	-610.9023437500001	483.5588684082032	-790.1670532226565	-616.8273925781251	276.7122497558594	-769.8635253906252	-618.6369628906251	278.8197326660157	-724.1065063476564	-655.6573486328126	333.0946044921876	-684.3286132812501	nan	nan	nan	nan	nan	nan	nan	nan	nan	
166	0.8250000000000001	-192.2055664062501	1745.056396484375	-1109.92626953125	-365.2753906250001	1690.232543945313	-1132.844970703125	-341.5972595214844	1699.545043945313	-985.7636718750002	-370.5109558105469	1517.224243164063	-1055.698608398438	-381.5065612792969	1207.988037109375	-1025.945190429688	-221.4029541015626	1462.658447265625	-1088.463256835938	-306.7390441894532	1472.045654296875	-1237.390747070313	-244.926498413086	1324.043823242188	-1338.921752929688	-203.3644561767579	1351.2646484375	-1340.366333007813	-183.1787719726563	1296.775024414063	-1355.553955078125	-109.9381408691407	1286.2939453125	-1366.1513671875	-120.4074249267578	1234.101928710938	-1298.0244140625	31.71733474731446	1420.856323242188	-1197.797241210938	77.36769104003908	1360.355590820313	-1194.636840820313	120.6154022216797	1440.89599609375	-1199.49560546875	-246.6035156250001	1496.408813476563	-925.4248657226565	-138.9290618896485	1356.791748046875	-835.5420532226565	-101.9073867797852	1379.667236328125	-857.1919555664065	-75.9729461669922	1327.081787109375	-843.7167968750002	-4.111717224121095	1315.916748046875	-867.0739746093752	-35.38885498046876	1249.814819335938	-919.1783447265627	132.9916534423828	1369.1259765625	-1084.915771484375	104.850814819336	1454.649047851563	-1109.144653320313	-212.3757934570313	981.2720947265627	-1117.99609375	-201.3258209228516	1003.170349121094	-889.033386230469	-386.9024658203126	1077.132934570313	-1006.556274414063	-394.4766845703126	1044.0615234375	-1031.743896484375	-389.5327758789064	1048.842529296875	-973.9043579101565	-298.7738037109376	827.6309814453127	-1175.929321289063	-265.5697631835938	749.8831787109376	-1172.48486328125	-217.0253601074219	752.6584472656251	-1159.04736328125	-295.9299316406251	697.1098632812501	-1164.814575195313	-326.3604736328126	526.6388549804689	-1121.795288085938	-300.8950805664063	519.6861572265626	-999.0571289062502	-298.4816589355469	345.4276428222657	-1021.912353515625	-305.2332458496094	297.1306762695313	-1094.951904296875	-289.9514160156251	296.7919616699219	-1049.455688476563	-303.5018310546876	219.8094940185547	-1016.677978515625	-352.6183471679688	124.0422592163086	-1058.540649414063	-330.7377319335938	138.0370330810547	-972.1785278320315	-208.1260833740235	64.29600524902345	-991.4671020507815	-208.7364349365235	61.00140762329103	-1036.529907226563	-258.1954040527344	50.14059829711915	-1080.635131835938	-263.3731384277344	827.0335083007815	-778.6638793945315	-215.9510498046876	780.122497558594	-771.3860473632815	-186.3363494873047	783.6755371093752	-783.5704345703127	-229.4535522460938	697.7636718750001	-759.0860595703126	-210.2263336181641	565.5454711914064	-764.7846679687501	-205.054916381836	528.8073730468751	-889.7647705078127	-293.0787963867188	472.9842529296876	-760.0287475585939	-391.5350646972657	510.5679321289064	-727.9178466796876	-374.4884033203126	466.7917480468751	-731.3786621093751	-416.9031677246095	432.3230285644532	-757.2363891601564	-580.8168334960939	444.3162536621095	-725.0773315429689	-556.4479370117189	402.1578369140626	-803.7388916015627	-610.7924194335939	483.2962951660157	-790.4109497070315	-616.8397827148439	276.5561523437501	-770.1147460937502	-618.5847167968751	278.5994873046876	-724.2167358398439	-655.6326904296876	332.9154663085938	-684.5335083007814	nan	nan	nan	nan	nan	nan	nan	nan	nan	
167	0.8300000000000001	-192.0638732910157	1745.13671875	-1109.864135742188	-365.2851867675782	1690.245727539063	-1132.728637695313	-341.4464111328126	1699.717651367188	-985.890319824219	-370.5350952148438	1517.218505859375	-1055.559936523438	-381.5939025878907	1207.967163085938	-1025.906005859375	-221.2965850830079	1462.665405273438	-1088.38232421875	-306.8352050781251	1472.0751953125	-1237.257080078125	-244.9368743896485	1324.061645507813	-1338.917724609375	-203.5005950927735	1351.288208007813	-1340.329467773438	-183.1619720458985	1296.839477539063	-1355.543212890625	-110.0178146362305	1286.395751953125	-1366.159057617188	-120.4023742675782	1234.168823242188	-1297.9052734375	31.6930160522461	1420.892211914063	-1197.779174804688	77.23216247558595	1360.35986328125	-1194.644409179688	120.6932449340821	1440.950317382813	-1199.564819335938	-246.5735778808594	1496.392456054688	-925.364929199219	-138.8399658203125	1356.803588867188	-835.4810791015627	-101.8325881958008	1379.6865234375	-857.110534667969	-75.9186477661133	1327.120727539063	-843.6640625000002	-4.032203674316407	1316.018676757813	-866.9930419921877	-35.38193130493165	1249.844604492188	-919.1123657226565	132.9691162109375	1369.162963867188	-1084.919799804688	104.750602722168	1454.593872070313	-1109.131958007813	-211.993881225586	981.4333496093752	-1118.270874023438	-201.4972229003907	1003.012390136719	-888.6944580078127	-386.911346435547	1077.124145507813	-1006.642761230469	-394.4718627929689	1044.089477539063	-1031.76318359375	-389.5242919921876	1048.858154296875	-973.9014282226565	-298.4671936035157	827.8709716796877	-1176.00390625	-265.4672241210938	749.8959350585939	-1172.41650390625	-216.9226531982422	752.6729125976564	-1158.996337890625	-295.7697448730469	697.1412353515626	-1164.750732421875	-326.2450256347657	526.6865234375001	-1121.76904296875	-300.7835998535157	519.7363281250001	-999.0899658203127	-298.3456115722657	345.5159301757813	-1021.882019042969	-305.0122375488282	297.1413574218751	-1094.941650390625	-289.9873046875001	296.7436218261719	-1049.275634765625	-303.4517822265626	219.8302154541016	-1016.58056640625	-352.6195373535157	124.0592575073242	-1058.493041992188	-330.7117309570313	138.0514526367188	-972.115661621094	-208.1266784667969	64.2108840942383	-991.3672485351565	-208.6841430664063	61.03261947631837	-1036.492431640625	-258.2375488281251	50.16387176513673	-1080.669677734375	-263.4317321777344	826.9584960937502	-778.6998291015627	-216.0342712402344	780.031188964844	-771.3921508789065	-186.4502258300782	783.605407714844	-783.5115356445315	-229.5047302246094	697.6749267578126	-759.1777954101564	-210.1490631103516	565.7817993164064	-765.3562011718751	-204.978988647461	528.7639160156251	-890.0288696289065	-293.0376586914063	472.9521484375001	-760.3533325195314	-391.5494079589845	510.4522705078126	-728.0817260742189	-374.4862670898438	466.628387451172	-731.6649780273439	-416.8214111328126	432.2592773437501	-757.4073486328126	-580.6909790039064	444.1068420410157	-725.3297119140626	-556.3112182617189	401.9963378906251	-803.9337158203127	-610.7791748046876	483.1395263671876	-790.5367431640627	-616.7904052734376	276.2559509277344	-770.4780273437502	-618.5521850585939	278.4420166015626	-724.5189208984376	-655.6234130859376	332.7722167968751	-684.7607421875001	nan	nan	nan	nan	nan	nan	nan	nan	nan	
